HIERARCHY
ROOT Hips
{
  OFFSET 5.80788e-005 67.184 3.4734
  CHANNELS 6 Xposition Yposition Zposition Zrotation Xrotation Yrotation
  JOINT Chest
  {
    OFFSET 0 8.7983 -4.7612
    CHANNELS 3 Zrotation Xrotation Yrotation
    JOINT Chest2
    {
      OFFSET 0 8.0291 0.4195
      CHANNELS 3 Zrotation Xrotation Yrotation
      JOINT Chest3
      {
        OFFSET 0 9.9351 -2.2114
        CHANNELS 3 Zrotation Xrotation Yrotation
        JOINT Neck
        {
          OFFSET 0 22.3885 -0.4656
          CHANNELS 3 Zrotation Xrotation Yrotation
          JOINT Head
          {
            OFFSET -0.0001 12.643 3.4389
            CHANNELS 3 Zrotation Xrotation Yrotation
            End Site
            {
              OFFSET 0.0001 17.6655 0.5274
            }
          }
        }
        JOINT LeftCollar
        {
          OFFSET 2.2603 21.606 7.4023
          CHANNELS 3 Zrotation Xrotation Yrotation
          JOINT LeftShoulder
          {
            OFFSET 13.5163 -1.1332 -5.0146
            CHANNELS 3 Zrotation Xrotation Yrotation
            JOINT LeftElbow
            {
              OFFSET -0.0995 -28.05 -0.2431
              CHANNELS 3 Zrotation Xrotation Yrotation
              JOINT LeftWrist
              {
                OFFSET 0.0679 -23.3996 -0.1402
                CHANNELS 3 Zrotation Xrotation Yrotation
                JOINT LeftFinger1
                {
                  OFFSET 0.7932 -9.069 2.5189
                  CHANNELS 3 Zrotation Xrotation Yrotation
                  JOINT LeftFinger11
                  {
                    OFFSET -0.8272 -3.3923 0.5977
                    CHANNELS 3 Zrotation Xrotation Yrotation
                    JOINT LeftFinger12
                    {
                      OFFSET -0.5649 -2.3158 0.4082
                      CHANNELS 3 Zrotation Xrotation Yrotation
                      End Site
                      {
                        OFFSET -0.4919 -1.6479 0.2673
                      }
                    }
                  }
                }
                JOINT LeftFinger2
                {
                  OFFSET 0.9159 -9.2044 0.2193
                  CHANNELS 3 Zrotation Xrotation Yrotation
                  JOINT LeftFinger21
                  {
                    OFFSET 0.0117 -4.1944 -0.0248
                    CHANNELS 3 Zrotation Xrotation Yrotation
                    JOINT LeftFinger22
                    {
                      OFFSET 0.0071 -2.3249 -0.0142
                      CHANNELS 3 Zrotation Xrotation Yrotation
                      End Site
                      {
                        OFFSET -0.1475 -2.0882 0.0028
                      }
                    }
                  }
                }
                JOINT LeftFinger3
                {
                  OFFSET 0.6113 -8.7231 -2.0637
                  CHANNELS 3 Zrotation Xrotation Yrotation
                  JOINT LeftFinger31
                  {
                    OFFSET -0.1927 -3.8059 -0.2383
                    CHANNELS 3 Zrotation Xrotation Yrotation
                    JOINT LeftFinger32
                    {
                      OFFSET -0.1091 -2.1688 -0.1362
                      CHANNELS 3 Zrotation Xrotation Yrotation
                      End Site
                      {
                        OFFSET -0.2358 -1.9176 -0.0906
                      }
                    }
                  }
                }
                JOINT LeftFinger4
                {
                  OFFSET -0.6151 -8.0947 -3.5641
                  CHANNELS 3 Zrotation Xrotation Yrotation
                  JOINT LeftFinger41
                  {
                    OFFSET -0.4882 -2.341 -0.6462
                    CHANNELS 3 Zrotation Xrotation Yrotation
                    JOINT LeftFinger42
                    {
                      OFFSET -0.3575 -1.7167 -0.4742
                      CHANNELS 3 Zrotation Xrotation Yrotation
                      End Site
                      {
                        OFFSET -0.4187 -1.5237 -0.3496
                      }
                    }
                  }
                }
                JOINT LeftFinger0
                {
                  OFFSET -1.42 -1.8761 1.4223
                  CHANNELS 3 Zrotation Xrotation Yrotation
                  JOINT LeftFinger01
                  {
                    OFFSET -1.1471 -3.4929 2.6334
                    CHANNELS 3 Zrotation Xrotation Yrotation
                    JOINT LeftFinger02
                    {
                      OFFSET -0.823 -2.3 1.6571
                      CHANNELS 3 Zrotation Xrotation Yrotation
                      End Site
                      {
                        OFFSET -0.5822 -1.6914 1.1582
                      }
                    }
                  }
                }
              }
            }
          }
        }
        JOINT RightCollar
        {
          OFFSET -2.2603 21.606 7.4023
          CHANNELS 3 Zrotation Xrotation Yrotation
          JOINT RightShoulder
          {
            OFFSET -13.5187 -1.1334 -5.0155
            CHANNELS 3 Zrotation Xrotation Yrotation
            JOINT RightElbow
            {
              OFFSET 0.0994 -28.0499 -0.2431
              CHANNELS 3 Zrotation Xrotation Yrotation
              JOINT RightWrist
              {
                OFFSET -0.0679 -23.3996 -0.1402
                CHANNELS 3 Zrotation Xrotation Yrotation
                JOINT RightFinger1
                {
                  OFFSET -0.7932 -9.0691 2.5189
                  CHANNELS 3 Zrotation Xrotation Yrotation
                  JOINT RightFinger11
                  {
                    OFFSET 0.8272 -3.3923 0.5977
                    CHANNELS 3 Zrotation Xrotation Yrotation
                    JOINT RightFinger12
                    {
                      OFFSET 0.565 -2.3158 0.4082
                      CHANNELS 3 Zrotation Xrotation Yrotation
                      End Site
                      {
                        OFFSET 0.4919 -1.6479 0.2673
                      }
                    }
                  }
                }
                JOINT RightFinger2
                {
                  OFFSET -0.916 -9.2044 0.2193
                  CHANNELS 3 Zrotation Xrotation Yrotation
                  JOINT RightFinger21
                  {
                    OFFSET -0.0117 -4.1944 -0.0248
                    CHANNELS 3 Zrotation Xrotation Yrotation
                    JOINT RightFinger22
                    {
                      OFFSET -0.0071 -2.3249 -0.0142
                      CHANNELS 3 Zrotation Xrotation Yrotation
                      End Site
                      {
                        OFFSET 0.1475 -2.0882 0.0028
                      }
                    }
                  }
                }
                JOINT RightFinger3
                {
                  OFFSET -0.6113 -8.7231 -2.0637
                  CHANNELS 3 Zrotation Xrotation Yrotation
                  JOINT RightFinger31
                  {
                    OFFSET 0.1927 -3.8059 -0.2383
                    CHANNELS 3 Zrotation Xrotation Yrotation
                    JOINT RightFinger32
                    {
                      OFFSET 0.1091 -2.1688 -0.1362
                      CHANNELS 3 Zrotation Xrotation Yrotation
                      End Site
                      {
                        OFFSET 0.2358 -1.9176 -0.0906
                      }
                    }
                  }
                }
                JOINT RightFinger4
                {
                  OFFSET 0.6151 -8.0947 -3.564
                  CHANNELS 3 Zrotation Xrotation Yrotation
                  JOINT RightFinger41
                  {
                    OFFSET 0.4882 -2.341 -0.6462
                    CHANNELS 3 Zrotation Xrotation Yrotation
                    JOINT RightFinger42
                    {
                      OFFSET 0.3574 -1.7166 -0.4742
                      CHANNELS 3 Zrotation Xrotation Yrotation
                      End Site
                      {
                        OFFSET 0.4187 -1.5237 -0.3496
                      }
                    }
                  }
                }
                JOINT RightFinger0
                {
                  OFFSET 1.4199 -1.8761 1.4221
                  CHANNELS 3 Zrotation Xrotation Yrotation
                  JOINT RightFinger01
                  {
                    OFFSET 1.1472 -3.4929 2.6336
                    CHANNELS 3 Zrotation Xrotation Yrotation
                    JOINT RightFinger02
                    {
                      OFFSET 0.8229 -2.3 1.6571
                      CHANNELS 3 Zrotation Xrotation Yrotation
                      End Site
                      {
                        OFFSET 0.5822 -1.6914 1.1582
                      }
                    }
                  }
                }
              }
            }
          }
        }
      }
    }
  }
  JOINT RightHip
  {
    OFFSET -9.412 3.9771 -0.7758
    CHANNELS 3 Zrotation Xrotation Yrotation
    JOINT RightKnee
    {
      OFFSET -0.7531 -40.938 0
      CHANNELS 3 Zrotation Xrotation Yrotation
      JOINT RightAnkle
      {
        OFFSET 0 -40.1986 0
        CHANNELS 3 Zrotation Xrotation Yrotation
        JOINT RightToe
        {
          OFFSET 0 -4.4182 9.239
          CHANNELS 3 Zrotation Xrotation Yrotation
          End Site
          {
            OFFSET 0 0 6.1981
          }
        }
      }
    }
  }
  JOINT LeftHip
  {
    OFFSET 9.4119 3.9773 -0.7758
    CHANNELS 3 Zrotation Xrotation Yrotation
    JOINT LeftKnee
    {
      OFFSET 0.7532 -40.9383 0
      CHANNELS 3 Zrotation Xrotation Yrotation
      JOINT LeftAnkle
      {
        OFFSET 0 -40.1986 0
        CHANNELS 3 Zrotation Xrotation Yrotation
        JOINT LeftToe
        {
          OFFSET 0 -4.4182 9.239
          CHANNELS 3 Zrotation Xrotation Yrotation
          End Site
          {
            OFFSET 0 0 6.1981
          }
        }
      }
    }
  }
}
MOTION
Frames:	6
Frame Time:	0.0333333
-3.28269 9.00305 37.2552 1.48175e-012 9.04693e-008 -90.0019 0.68005 12.0538 -0.673761 1.56271 24.0975 -1.55112 1.56271 24.0975 -1.55113 25.256 3.89955 -22.541 -10.3578 -41.4219 -22.4291 20.3646 -8.87738 20.1954 62.5563 -28.5504 18.8249 173.144 -57.6358 -154.088 23.4586 -0.718104 76.5223 3.53113e-031 6.36111e-015 -3.18055e-015 6.36111e-015 0 6.36111e-015 -2.69936e-006 1.81636e-006 4.3097e-006 3.53113e-031 6.36111e-015 -3.18055e-015 -0.0127882 0.00231064 8.83514e-005 3.00239e-006 7.32682e-006 -4.17652e-006 3.53113e-031 6.36111e-015 -3.18055e-015 -0.0161082 0.00299984 0.000864533 -1.52496e-006 3.90032e-007 -3.7486e-007 3.53113e-031 6.36111e-015 -3.18055e-015 -0.0126633 0.00313338 0.00284839 -9.54166e-015 1.77675e-007 -3.18055e-015 3.53113e-031 6.36111e-015 -3.18055e-015 6.36111e-015 0 6.36111e-015 -2.69936e-006 1.81636e-006 4.3097e-006 -17.7247 -35.3989 -47.8381 3.96521 -13.8216 8.77873 141.638 -45.0903 74.9913 -3.13586 22.7006 -36.215 -2.38542e-015 3.18055e-015 -1.59028e-015 -1.59028e-015 3.18055e-015 -0 -7.95139e-016 -3.18055e-015 -1.59028e-015 -2.38542e-015 3.18055e-015 -1.59028e-015 0.0129626 0.00231783 -9.22824e-005 7.09211e-007 1.39366e-006 -1.49368e-006 -2.38542e-015 3.18055e-015 -1.59028e-015 0.0163227 0.00303093 -0.00087921 7.95139e-016 0 -4.77083e-015 -2.38542e-015 3.18055e-015 -1.59028e-015 0.0146042 0.00368461 -0.00326864 -3.97569e-015 6.36111e-015 -1.59028e-015 -2.38542e-015 3.18055e-015 -1.59028e-015 -1.59028e-015 3.18055e-015 -0 -7.95139e-016 -3.18055e-015 -1.59028e-015 -2.30037 -51.6843 -7.36385 -173.804 24.8122 163.848 -1.98378 37.7351 -3.05953 -2.63354e-006 -5.93468e-006 2.09369e-006 3.6786 -51.2842 2.02531 173.623 25.4968 -163.899 4.49587 37.6296 -4.49343 -3.09583e-006 -1.40473e-005 6.77982e-006 
-3.28269 9.00305 37.2552 -7.85898e-013 -4.79837e-008 -90.0019 0.664141 12.0541 -0.663468 1.52741 24.0985 -1.52618 1.5274 24.0984 -1.52617 24.6957 4.08279 -21.6996 -10.1143 -41.3629 -21.9369 20.5185 -8.94297 19.8623 62.5558 -28.5503 18.8245 173.147 -57.6327 -154.087 23.6168 -0.554045 76.2785 6.09936e-006 5.66615e-006 1.50185e-006 -6.36111e-015 -6.36111e-015 -1.59028e-014 0 0 -6.36111e-015 6.09936e-006 5.66615e-006 1.50185e-006 -0.0128445 0.00233174 8.70244e-005 -6.36111e-015 -9.54166e-015 6.36111e-015 6.09936e-006 5.66615e-006 1.50185e-006 -0.0160375 0.00298818 0.000863986 3.18055e-015 0 -9.54166e-015 6.09936e-006 5.66615e-006 1.50185e-006 -0.0125937 0.00311251 0.00282418 4.59609e-006 5.84233e-006 3.59057e-006 6.09936e-006 5.66615e-006 1.50185e-006 -6.36111e-015 -6.36111e-015 -1.59028e-014 0 0 -6.36111e-015 -17.8263 -35.364 -48.0659 3.8576 -13.8156 8.64457 141.509 -45.2933 74.8753 -2.70646 22.6858 -36.5328 7.09646e-007 -5.23457e-007 -1.49333e-006 3.97569e-015 -6.36111e-015 -0 7.09646e-007 -1.50355e-006 -1.49333e-006 7.09646e-007 -5.23457e-007 -1.49333e-006 0.0129332 0.00231903 -8.64978e-005 -3.10569e-006 4.98503e-007 -1.35041e-006 7.09646e-007 -5.23457e-007 -1.49333e-006 0.016302 0.00302696 -0.00087438 4.50962e-007 -7.95581e-007 1.17098e-006 7.09646e-007 -5.23457e-007 -1.49333e-006 0.0145748 0.00367187 -0.00326632 7.95139e-016 2.54444e-014 -1.59028e-015 7.09646e-007 -5.23457e-007 -1.49333e-006 3.97569e-015 -6.36111e-015 -0 7.09646e-007 -1.50355e-006 -1.49333e-006 -2.30037 -51.6843 -7.36383 -173.804 24.8122 163.848 -1.98377 37.7351 -3.05953 -3.95031e-006 -8.16212e-006 3.14053e-006 3.6786 -51.2842 2.02531 173.623 25.4968 -163.899 4.49587 37.6296 -4.49343 -3.09583e-006 -1.40473e-005 6.77982e-006 
-3.28269 9.00305 37.2552 -1.4752e-011 -9.00694e-007 -90.0019 0.65113 12.0544 -0.65506 1.49854 24.0991 -1.50579 1.49852 24.0993 -1.50576 24.237 4.23868 -21.0089 -9.91548 -41.3137 -21.5345 20.6442 -8.99764 19.5898 62.5552 -28.5502 18.8241 173.148 -57.6294 -154.086 23.7469 -0.420402 76.0785 -6.36111e-015 -6.36111e-015 -0 -3.53113e-031 -3.18055e-015 -6.36111e-015 -3.18055e-015 2.3357e-006 -3.18055e-015 -6.36111e-015 -6.36111e-015 -0 -0.0128371 0.00231546 9.2372e-005 3.05586e-007 6.50224e-006 1.31403e-007 -6.36111e-015 -6.36111e-015 -0 -0.0160235 0.00299471 0.000855224 6.36111e-015 0 -0 -6.36111e-015 -6.36111e-015 -0 -0.0126042 0.00311464 0.00282287 -3.26185e-007 1.45117e-006 -2.59547e-006 -6.36111e-015 -6.36111e-015 -0 -3.53113e-031 -3.18055e-015 -6.36111e-015 -3.18055e-015 2.3357e-006 -3.18055e-015 -17.9093 -35.3354 -48.2523 3.7696 -13.8103 8.53481 141.403 -45.4591 74.7793 -2.35501 22.6715 -36.7926 2.39535e-006 1.26552e-006 2.84461e-006 -7.95139e-016 -1.27222e-014 3.18055e-015 2.64834e-031 -9.54166e-015 1.59028e-015 2.39535e-006 1.26552e-006 2.84461e-006 0.0129414 0.00231073 -8.68257e-005 7.95139e-016 -3.18055e-015 3.18055e-015 2.39535e-006 1.26552e-006 2.84461e-006 0.0163491 0.00303562 -0.000873576 7.95139e-016 -6.36111e-015 4.77083e-015 2.39535e-006 1.26552e-006 2.84461e-006 0.0145778 0.00368208 -0.00325795 -2.38542e-015 6.36111e-015 3.18055e-015 2.39535e-006 1.26552e-006 2.84461e-006 -7.95139e-016 -1.27222e-014 3.18055e-015 2.64834e-031 -9.54166e-015 1.59028e-015 -2.30035 -51.6843 -7.36379 -173.804 24.8121 163.848 -1.98378 37.735 -3.05952 -1.02156e-005 -2.12205e-006 4.43818e-006 3.67861 -51.2842 2.02531 173.623 25.4968 -163.899 4.49585 37.6295 -4.49345 -4.2645e-006 -2.646e-005 7.07802e-006 
-3.28269 9.00305 37.2552 -1.28363e-011 -7.83734e-007 -90.0019 0.63811 12.0546 -0.646641 1.46965 24.1 -1.48537 1.46964 24.1001 -1.48536 23.7752 4.38945 -20.3151 -9.71716 -41.2635 -21.1324 20.7698 -9.05288 19.3172 62.5546 -28.55 18.8236 173.15 -57.6262 -154.085 23.8776 -0.287193 75.8782 -3.18055e-015 3.18055e-015 3.18055e-015 -4.85861e-006 -6.84833e-006 1.20425e-006 3.18055e-015 3.40156e-007 6.36111e-015 -3.18055e-015 3.18055e-015 3.18055e-015 -0.012828 0.00232599 8.84208e-005 -1.52412e-006 8.12033e-007 -3.76639e-007 -3.18055e-015 3.18055e-015 3.18055e-015 -0.0160489 0.00299456 0.000861659 -3.02916e-006 -1.09151e-006 1.71136e-006 -3.18055e-015 3.18055e-015 3.18055e-015 -0.0125864 0.00311973 0.00282384 -1.50495e-006 2.2845e-006 2.08809e-006 -3.18055e-015 3.18055e-015 3.18055e-015 -4.85861e-006 -6.84833e-006 1.20425e-006 3.18055e-015 3.40156e-007 6.36111e-015 -17.9922 -35.3066 -48.4385 3.6817 -13.8049 8.42506 141.296 -45.6249 74.6827 -2.00351 22.6557 -37.0525 -5.29669e-031 -9.54166e-015 -3.18055e-015 1.59028e-015 -3.18055e-015 1.59028e-015 1.50912e-006 -4.27459e-007 -1.06799e-006 -5.29669e-031 -9.54166e-015 -3.18055e-015 0.0129238 0.00231816 -9.20896e-005 7.95139e-016 -3.18055e-015 -4.77083e-015 -5.29669e-031 -9.54166e-015 -3.18055e-015 0.0163329 0.00303963 -0.000879738 -7.95139e-016 -3.18055e-015 -4.77083e-015 -5.29669e-031 -9.54166e-015 -3.18055e-015 0.0145889 0.0036851 -0.003266 1.59028e-015 0 -1.59028e-015 -5.29669e-031 -9.54166e-015 -3.18055e-015 1.59028e-015 -3.18055e-015 1.59028e-015 1.50912e-006 -4.27459e-007 -1.06799e-006 -2.30036 -51.6843 -7.3638 -173.804 24.8121 163.848 -1.98377 37.735 -3.05953 -8.24044e-006 -2.27818e-006 2.86792e-006 3.67861 -51.2842 2.02531 173.623 25.4968 -163.899 4.49583 37.6295 -4.49343 5.89926e-006 -1.55995e-005 1.32098e-005 
-3.28269 9.00305 37.2552 -4.37565e-011 -2.67159e-006 -90.0019 0.625096 12.0548 -0.638231 1.44077 24.1008 -1.46495 1.44076 24.1008 -1.46495 23.3102 4.53505 -19.6183 -9.51944 -41.2122 -20.7309 20.8951 -9.10869 19.0445 62.5541 -28.5499 18.8231 173.153 -57.6229 -154.083 24.0088 -0.154396 75.6775 -6.36111e-015 3.18055e-015 6.36111e-015 2.15643e-006 3.43634e-006 3.10211e-006 -1.83098e-006 -1.05556e-005 -5.07057e-007 -6.36111e-015 3.18055e-015 6.36111e-015 -0.0128524 0.00233042 8.11541e-005 -7.56601e-006 -3.02176e-006 5.50943e-006 -6.36111e-015 3.18055e-015 6.36111e-015 -0.0160406 0.00299713 0.000866703 -7.07299e-006 -1.04123e-005 -9.29395e-006 -6.36111e-015 3.18055e-015 6.36111e-015 -0.0125726 0.00312298 0.00282646 3.18055e-015 0 -0 -6.36111e-015 3.18055e-015 6.36111e-015 2.15643e-006 3.43634e-006 3.10211e-006 -1.83098e-006 -1.05556e-005 -5.07057e-007 -18.0749 -35.2775 -48.6246 3.59372 -13.7994 8.31532 141.189 -45.7905 74.5853 -1.65201 22.6384 -37.3123 -2.38542e-015 -6.36111e-015 -1.59028e-015 0 0 -4.77083e-015 2.38542e-015 -6.36111e-015 -6.36111e-015 -2.38542e-015 -6.36111e-015 -1.59028e-015 0.0129438 0.00231345 -8.39912e-005 0 0 -1.59028e-015 -2.38542e-015 -6.36111e-015 -1.59028e-015 0.0163662 0.00303457 -0.000870265 -3.97569e-015 0 -0 -2.38542e-015 -6.36111e-015 -1.59028e-015 0.0145688 0.00366851 -0.00325724 -7.11161e-007 -1.39276e-006 1.4925e-006 -2.38542e-015 -6.36111e-015 -1.59028e-015 0 0 -4.77083e-015 2.38542e-015 -6.36111e-015 -6.36111e-015 -2.30037 -51.6843 -7.36385 -173.804 24.8122 163.848 -1.98379 37.735 -3.05954 -5.92546e-006 -1.56818e-005 4.7108e-006 3.67863 -51.2842 2.02532 173.623 25.4968 -163.899 4.49586 37.6295 -4.49347 -2.55743e-006 -2.31486e-005 1.43556e-005 
-3.28269 9.00305 37.2552 1.52588e-005 -1.54498e-006 -90.0019 0.612074 12.0551 -0.629795 1.41189 24.1015 -1.44455 1.41188 24.1015 -1.44454 22.8424 4.67529 -18.9185 -9.32224 -41.1598 -20.3296 21.0203 -9.16514 18.7719 62.5535 -28.5497 18.8227 173.155 -57.6196 -154.082 24.1404 -0.0220154 75.4765 3.25297e-007 -6.86623e-006 2.59479e-006 3.18055e-015 -6.36111e-015 9.54166e-015 2.11868e-030 -6.36111e-015 1.90833e-014 3.25297e-007 -6.86623e-006 2.59479e-006 -0.0128527 0.00234144 7.98379e-005 8.25288e-006 -6.44457e-006 4.61265e-006 3.25297e-007 -6.86623e-006 2.59479e-006 -0.0159746 0.00298474 0.000853847 -2.2072e-006 -7.8624e-007 -1.04986e-005 3.25297e-007 -6.86623e-006 2.59479e-006 -0.0125767 0.00312694 0.00282694 6.36111e-015 0 3.18055e-015 3.25297e-007 -6.86623e-006 2.59479e-006 3.18055e-015 -6.36111e-015 9.54166e-015 2.11868e-030 -6.36111e-015 1.90833e-014 -18.1575 -35.2482 -48.8107 3.50569 -13.7937 8.20555 141.08 -45.9561 74.4872 -1.30044 22.6197 -37.5722 7.11358e-007 -1.76515e-006 -1.49227e-006 -1.42272e-006 1.50197e-006 2.98455e-006 -1.38158e-006 -4.10767e-006 3.94322e-006 7.11358e-007 -1.76515e-006 -1.49227e-006 0.0129262 0.00231663 -8.16058e-005 4.74354e-006 -4.1233e-006 4.73628e-006 7.11358e-007 -1.76515e-006 -1.49227e-006 0.01629 0.00302288 -0.000867964 7.1358e-006 -2.27002e-007 7.58392e-006 7.11358e-007 -1.76515e-006 -1.49227e-006 0.0146047 0.00368624 -0.00326394 1.68104e-006 1.37409e-006 4.33983e-006 7.11358e-007 -1.76515e-006 -1.49227e-006 -1.42272e-006 1.50197e-006 2.98455e-006 -1.38158e-006 -4.10767e-006 3.94322e-006 -2.30036 -51.6844 -7.36378 -173.804 24.812 163.848 -1.98379 37.7349 -3.05951 -6.77806e-006 9.42205e-007 1.072e-006 3.67863 -51.2842 2.02534 173.623 25.4968 -163.899 4.49585 37.6295 -4.49345 3.62902e-006 2.54936e-005 1.6278e-005 
